<svg fill="none" height="24" viewBox="0 0 24 24" width="24" xmlns="http://www.w3.org/2000/svg" xmlns:xlink="http://www.w3.org/1999/xlink"><clipPath id="a"><path d="m3 3h18v18h-18z"/></clipPath><g clip-path="url(#a)"><path d="m19.5 9.75v-1.5h-.75v-1.5h-.75v-.75h-.75v-.75h-1.5v-.75h-1.5v-.75h-4.5v.75h-1.5v.75h-1.5v.75h-.75v.75h-.75v1.5h-.75v1.5h-.75v4.5h.75v1.5h.75v1.5h.75v.75h.75v.75h1.5v.75h1.5v.75h4.5v-.75h1.5v-.75h1.5v-.75h.75v-.75h.75v-1.5h.75v-1.5h.75v-4.5zm-3 2.25v-2.25h.75v-.75h.75v.75h.75v3h-1.5v-.75zm-3 5.25v1.5h-1.5v-2.25h-.75v-.75h-.75v-2.25h-.75v-.75h-.75v-.75h-.75v-.75h-.75v-.75h-.75v-.75h-.75v-1.5h.75v-.75h.75v-.75h.75v-.75h2.25v-.75h1.5v.75h.75v3h-1.5v1.5h.75v.75h-1.5v-.75h-1.5v1.5h2.25v.75h3v.75h.75v2.25h-.75v1.5z" fill="#333"/></g></svg>